<svg width="264" height="281" viewBox="0 0 264 281" fill="none" xmlns="http://www.w3.org/2000/svg">
<mask id="mask0" mask-type="alpha" maskUnits="userSpaceOnUse" x="32" y="36" width="200" height="244">
<path d="M132 36C162.928 36 188 61.0721 188 92L188.001 98.1661C193.676 99.1185 198 104.054 198 110V124C198 130.052 193.519 135.058 187.694 135.881C185.628 155.686 173.238 172.422 156.001 180.61L156 199H160C199.764 199 232 231.236 232 271V280H32V271C32 231.236 64.2355 199 104 199H108L108 180.611C90.7626 172.422 78.3721 155.687 76.3051 135.881C70.4808 135.058 66 130.052 66 124V110C66 104.054 70.3247 99.118 76.0002 98.1659L76 92C76 61.0721 101.072 36 132 36Z" fill="white"/>
</mask>
<g mask="url(#mask0)">
<path d="M132 36C162.928 36 188 61.0721 188 92L188.001 98.1661C193.676 99.1185 198 104.054 198 110V124C198 130.052 193.519 135.058 187.694 135.881C185.628 155.686 173.238 172.422 156.001 180.61L156 199H160C199.764 199 232 231.236 232 271V280H32V271C32 231.236 64.2355 199 104 199H108L108 180.611C90.7626 172.422 78.3721 155.687 76.3051 135.881C70.4808 135.058 66 130.052 66 124V110C66 104.054 70.3247 99.118 76.0002 98.1659L76 92C76 61.0721 101.072 36 132 36Z" fill="#D0C6AC"/>
<path d="M264 36H0V280H264V36Z" fill="#AE5D29"/>
<path fill-rule="evenodd" clip-rule="evenodd" d="M76 130C76 160.928 101.072 186 132 186C162.928 186 188 160.928 188 130V138C188 168.928 162.928 194 132 194C101.072 194 76 168.928 76 138V130Z" fill="black" fill-opacity="0.1"/>
</g>
<mask id="mask1" mask-type="alpha" maskUnits="userSpaceOnUse" x="32" y="199" width="200" height="81">
<path d="M99 200.348C99 212.211 113.998 221.828 132.5 221.828C151.002 221.828 166 212.211 166 200.348C166 199.995 165.987 199.644 165.96 199.295C202.936 202.325 232 233.294 232 271.052V280H32V271.052C32 232.952 61.5926 201.764 99.0466 199.219C99.0152 199.595 99 199.97 99 200.348Z" fill="white"/>
</mask>
<g mask="url(#mask1)">
<path d="M99 200.348C99 212.211 113.998 221.828 132.5 221.828C151.002 221.828 166 212.211 166 200.348C166 199.995 165.987 199.644 165.96 199.295C202.936 202.325 232 233.294 232 271.052V280H32V271.052C32 232.952 61.5926 201.764 99.0466 199.219C99.0152 199.595 99 199.97 99 200.348Z" fill="#E6E6E6"/>
<path d="M264 170H0V280H264V170Z" fill="#262E33"/>
<g opacity="0.6">
<g opacity="0.6">
<path opacity="0.6" d="M132.5 228.761C154.39 228.761 172.135 216.712 172.135 201.848C172.135 186.984 154.39 174.934 132.5 174.934C110.61 174.934 92.8649 186.984 92.8649 201.848C92.8649 216.712 110.61 228.761 132.5 228.761Z" fill="black" fill-opacity="0.16"/>
</g>
</g>
</g>
<path fill-rule="evenodd" clip-rule="evenodd" d="M96 238.5C96 253.709 97.9609 267.921 101.362 280.001L32 280V271.052C32 232.365 62.5123 200.804 100.785 199.122C97.74 210.731 96 224.173 96 238.5ZM232 271.052V280L163.638 280.001C167.039 267.921 169 253.709 169 238.5C169 224.194 167.265 210.771 164.229 199.174C202.025 201.363 232 232.707 232 271.052Z" fill="#3A4C5A"/>
<path fill-rule="evenodd" clip-rule="evenodd" d="M181 256L190.556 248.833C191.999 247.751 193.988 247.768 195.412 248.876L202 254L181 256Z" fill="#E6E6E6"/>
<path fill-rule="evenodd" clip-rule="evenodd" d="M101 198C97 217.333 98.6667 244.667 106 280H90L76 244L82 235L76 229L95 199C97.0277 198.369 99.0277 198.036 101 198Z" fill="#2F4351"/>
<path fill-rule="evenodd" clip-rule="evenodd" d="M163 198C167 217.333 165.333 244.667 158 280H174L188 244L182 235L188 229L169 199C166.972 198.369 164.972 198.036 163 198Z" fill="#2F4351"/>
<mask id="mask2" mask-type="alpha" maskUnits="userSpaceOnUse" x="113" y="147" width="38" height="19">
<path d="M113.118 149.128C114.176 158.62 122.226 166 132 166C141.804 166 149.874 158.574 150.892 149.04C150.974 148.273 150.117 147 149.043 147C134.149 147 122.738 147 115.087 147C114.007 147 113.012 148.178 113.118 149.128Z" fill="white"/>
</mask>
<g mask="url(#mask2)">
<path d="M113.118 149.128C114.176 158.62 122.226 166 132 166C141.804 166 149.874 158.574 150.892 149.04C150.974 148.273 150.117 147 149.043 147C134.149 147 122.738 147 115.087 147C114.007 147 113.012 148.178 113.118 149.128Z" fill="black" fill-opacity="0.7"/>
<path fill-rule="evenodd" clip-rule="evenodd" d="M122 136H143C145.761 136 148 138.239 148 141V147C148 149.761 145.761 152 143 152H122C119.239 152 117 149.761 117 147V141C117 138.239 119.239 136 122 136Z" fill="white"/>
<path d="M127 180C133.075 180 138 175.075 138 169C138 162.925 133.075 158 127 158C120.925 158 116 162.925 116 169C116 175.075 120.925 180 127 180Z" fill="#FF4F6D"/>
<path d="M137 180C143.075 180 148 175.075 148 169C148 162.925 143.075 158 137 158C130.925 158 126 162.925 126 169C126 175.075 130.925 180 137 180Z" fill="#FF4F6D"/>
</g>
<path fill-rule="evenodd" clip-rule="evenodd" d="M120 130C120 134.418 125.373 138 132 138C138.627 138 144 134.418 144 130" fill="black" fill-opacity="0.16"/>
<path fill-rule="evenodd" clip-rule="evenodd" d="M92.1602 112.447C94.0067 108.649 98.1644 106 102.998 106C107.814 106 111.959 108.63 113.815 112.407C114.367 113.529 113.582 114.447 112.791 113.767C110.34 111.66 106.859 110.344 102.998 110.344C99.2572 110.344 95.8738 111.579 93.4375 113.572C92.5468 114.3 91.6201 113.558 92.1602 112.447Z" fill="black" fill-opacity="0.6"/>
<path fill-rule="evenodd" clip-rule="evenodd" d="M150.16 112.447C152.007 108.649 156.164 106 160.998 106C165.814 106 169.959 108.63 171.815 112.407C172.367 113.529 171.582 114.447 170.791 113.767C168.34 111.66 164.859 110.344 160.998 110.344C157.257 110.344 153.874 111.579 151.438 113.572C150.547 114.3 149.62 113.558 150.16 112.447Z" fill="black" fill-opacity="0.6"/>
<path d="M91.6303 99.1586C95.5452 93.6499 106.278 90.5608 115.523 92.8312C116.596 93.0946 117.679 92.4386 117.942 91.3659C118.206 90.2932 117.55 89.21 116.477 88.9466C105.74 86.31 93.3121 89.887 88.3698 96.8414C87.7299 97.7418 87.9411 98.9904 88.8414 99.6303C89.7418 100.27 90.9904 100.059 91.6303 99.1586Z" fill="black" fill-opacity="0.6"/>
<path d="M172.37 99.1586C168.455 93.6499 157.722 90.5608 148.477 92.8312C147.405 93.0946 146.321 92.4386 146.058 91.3659C145.795 90.2932 146.451 89.21 147.523 88.9466C158.26 86.31 170.688 89.887 175.631 96.8414C176.27 97.7418 176.059 98.9904 175.159 99.6303C174.259 100.27 173.01 100.059 172.37 99.1586Z" fill="black" fill-opacity="0.6"/>
<mask id="mask3" mask-type="alpha" maskUnits="userSpaceOnUse" x="0" y="0" width="264" height="280">
<path d="M264 0H0V280H264V0Z" fill="white"/>
</mask>
<g mask="url(#mask3)">
<mask id="mask4" mask-type="alpha" maskUnits="userSpaceOnUse" x="72" y="19" width="118" height="82">
<path d="M121.317 19.3731C123.555 18.4499 125.188 19.4101 126.833 20.4081L127.263 20.6681C128.555 21.4435 129.887 22.1438 131.554 21.8845C134.443 21.4348 135.223 21.0677 137.831 22.7115C140.362 24.3071 140.963 23.1665 143.829 23.1436C145.854 23.1284 147.094 24.8203 148.788 24.9967C149.632 25.0851 150.441 24.2051 151.348 24.2604C154.585 24.4567 154.79 28.643 157.362 29.7956C159.712 30.8488 162.474 29.3691 164.807 29.0953C168.572 28.6534 168.139 30.8315 167.462 33.2749L167.325 33.7664C167.017 34.8633 166.714 35.9817 166.761 36.9147C168.994 37.4359 171.262 35.351 173.485 35.7347C176.707 36.2909 175.846 39.4068 175.055 41.8068L174.953 42.1155C174.919 42.2169 174.886 42.3166 174.853 42.4145C177.28 42.3708 183.613 39.6777 185.185 43.122C185.995 44.898 184.107 47.2689 184.138 49.0744C184.181 51.6159 186.049 53.7186 186.709 56.124C187.601 59.371 188.872 68.074 186.637 70.9566C185.891 71.9188 180.796 69.2177 178.671 68.044C160.826 58.1841 157.362 55.0487 129.246 55.4578C101.13 55.867 81.8675 69.04 80.784 70.3874C80.0302 71.3249 79.0678 73.8279 78.2764 80.8005C78.0577 82.7272 77.9766 85.0762 77.9133 87.4668L77.8869 88.4927C77.7366 94.4223 77.5906 100.273 75.6305 100.263C74.2403 100.255 73.4701 92.5284 73.2597 84.1381L73.2397 83.2528L73.2237 82.3643L73.2119 81.4747C73.2102 81.3264 73.2088 81.1782 73.2075 81.03L73.2017 80.1419C73.2011 79.9941 73.2007 79.8465 73.2004 79.699L73.2008 78.8166C73.2131 74.2717 73.3874 69.9699 73.7137 67.0464C73.8754 65.5985 74.4984 63.0084 74.0474 61.7059C73.6533 60.5682 71.7254 60.5706 72.0331 58.6751C72.243 57.3804 73.1101 57.2484 73.975 57.1271L74.2622 57.0855C74.7379 57.0115 75.1902 56.9013 75.506 56.5574C77.3006 54.603 74.5322 54.1404 74.073 52.4307C73.4881 50.2523 74.8535 49.4594 76.3745 48.772L77.1397 48.4311C79.106 47.5438 78.8505 48.3231 80.4464 46.5849C78.3148 45.0225 77.5436 42.8939 80.4624 41.752C81.702 41.2669 84.9269 41.9089 85.8981 41.1802C86.1513 40.9901 86.2515 39.9008 86.4075 39.678C87.9584 37.4594 87.5757 35.8532 87.4184 33.3624C87.289 31.3242 87.3064 29.4532 89.7467 29.2496C91.3751 29.1139 92.6993 30.4442 94.1582 30.8359C95.7768 31.2706 95.1688 31.5878 96.4369 30.715C98.6631 29.1817 97.148 26.1943 98.9133 24.412C101.336 21.9662 102.924 25.5513 104.869 25.8218C107.454 26.182 107.948 24.7143 108.517 23.1612L108.632 22.85C108.965 21.9679 109.369 21.0957 110.236 20.5505C111.829 19.5496 112.655 20.2566 113.362 21.1566L113.537 21.3848C113.565 21.4232 113.594 21.4617 113.623 21.5003L113.794 21.7307C114.251 22.3405 114.715 22.896 115.379 22.9483C116.996 23.0751 119.908 19.9545 121.317 19.3731ZM179.002 71.3348C179.846 70.2981 180.666 70.8996 181.697 71.3147C182.812 71.7641 185.634 73.818 185.832 73.9287C187.589 74.9174 188.98 84.8279 189.048 88.6177C189.09 90.9562 189.127 99.874 186.654 99.1031C185.901 98.8684 184.752 94.1472 184.588 91.3841C184.425 88.6209 182.855 79.22 180.447 74.8947C179.896 73.9063 178.321 72.1709 179.002 71.3348Z" fill="white"/>
</mask>
<g mask="url(#mask4)">
<path d="M121.317 19.3731C123.555 18.4499 125.188 19.4101 126.833 20.4081L127.263 20.6681C128.555 21.4435 129.887 22.1438 131.554 21.8845C134.443 21.4348 135.223 21.0677 137.831 22.7115C140.362 24.3071 140.963 23.1665 143.829 23.1436C145.854 23.1284 147.094 24.8203 148.788 24.9967C149.632 25.0851 150.441 24.2051 151.348 24.2604C154.585 24.4567 154.79 28.643 157.362 29.7956C159.712 30.8488 162.474 29.3691 164.807 29.0953C168.572 28.6534 168.139 30.8315 167.462 33.2749L167.325 33.7664C167.017 34.8633 166.714 35.9817 166.761 36.9147C168.994 37.4359 171.262 35.351 173.485 35.7347C176.707 36.2909 175.846 39.4068 175.055 41.8068L174.953 42.1155C174.919 42.2169 174.886 42.3166 174.853 42.4145C177.28 42.3708 183.613 39.6777 185.185 43.122C185.995 44.898 184.107 47.2689 184.138 49.0744C184.181 51.6159 186.049 53.7186 186.709 56.124C187.601 59.371 188.872 68.074 186.637 70.9566C185.891 71.9188 180.796 69.2177 178.671 68.044C160.826 58.1841 157.362 55.0487 129.246 55.4578C101.13 55.867 81.8675 69.04 80.784 70.3874C80.0302 71.3249 79.0678 73.8279 78.2764 80.8005C78.0577 82.7272 77.9766 85.0762 77.9133 87.4668L77.8869 88.4927C77.7366 94.4223 77.5906 100.273 75.6305 100.263C74.2403 100.255 73.4701 92.5284 73.2597 84.1381L73.2397 83.2528L73.2237 82.3643L73.2119 81.4747C73.2102 81.3264 73.2088 81.1782 73.2075 81.03L73.2017 80.1419C73.2011 79.9941 73.2007 79.8465 73.2004 79.699L73.2008 78.8166C73.2131 74.2717 73.3874 69.9699 73.7137 67.0464C73.8754 65.5985 74.4984 63.0084 74.0474 61.7059C73.6533 60.5682 71.7254 60.5706 72.0331 58.6751C72.243 57.3804 73.1101 57.2484 73.975 57.1271L74.2622 57.0855C74.7379 57.0115 75.1902 56.9013 75.506 56.5574C77.3006 54.603 74.5322 54.1404 74.073 52.4307C73.4881 50.2523 74.8535 49.4594 76.3745 48.772L77.1397 48.4311C79.106 47.5438 78.8505 48.3231 80.4464 46.5849C78.3148 45.0225 77.5436 42.8939 80.4624 41.752C81.702 41.2669 84.9269 41.9089 85.8981 41.1802C86.1513 40.9901 86.2515 39.9008 86.4075 39.678C87.9584 37.4594 87.5757 35.8532 87.4184 33.3624C87.289 31.3242 87.3064 29.4532 89.7467 29.2496C91.3751 29.1139 92.6993 30.4442 94.1582 30.8359C95.7768 31.2706 95.1688 31.5878 96.4369 30.715C98.6631 29.1817 97.148 26.1943 98.9133 24.412C101.336 21.9662 102.924 25.5513 104.869 25.8218C107.454 26.182 107.948 24.7143 108.517 23.1612L108.632 22.85C108.965 21.9679 109.369 21.0957 110.236 20.5505C111.829 19.5496 112.655 20.2566 113.362 21.1566L113.537 21.3848C113.565 21.4232 113.594 21.4617 113.623 21.5003L113.794 21.7307C114.251 22.3405 114.715 22.896 115.379 22.9483C116.996 23.0751 119.908 19.9545 121.317 19.3731ZM179.002 71.3348C179.846 70.2981 180.666 70.8996 181.697 71.3147C182.812 71.7641 185.634 73.818 185.832 73.9287C187.589 74.9174 188.98 84.8279 189.048 88.6177C189.09 90.9562 189.127 99.874 186.654 99.1031C185.901 98.8684 184.752 94.1472 184.588 91.3841C184.425 88.6209 182.855 79.22 180.447 74.8947C179.896 73.9063 178.321 72.1709 179.002 71.3348Z" fill="#2E3257"/>
<path d="M264 0H0V280H264V0Z" fill="#2C1B18"/>
</g>
<g filter="url(#filter0_d)">
<path d="M163 88C171.92 88 179.703 92.8659 183.84 100.088C184.05 100.031 184.271 100 184.5 100H192.5C193.881 100 195 101.119 195 102.5C195 103.881 193.881 105 192.5 105L185.963 105C186.637 107.215 187 109.565 187 112C187 125.255 176.255 136 163 136C149.745 136 139 125.255 139 112C139 110.582 139.123 109.192 139.359 107.841C139.281 103.461 135.917 100 131.862 100C128.124 100 124.973 102.942 124.441 106.834C124.808 108.498 125 110.227 125 112C125 125.255 114.255 136 101 136C87.7452 136 77 125.255 77 112C77 109.565 77.3627 107.215 78.0369 105L71.5 105C70.1193 105 69 103.881 69 102.5C69 101.119 70.1193 100 71.5 100H79.5C79.7286 100 79.95 100.031 80.1604 100.088C84.2971 92.8659 92.0803 88 101 88C110.352 88 118.455 93.3493 122.416 101.155C124.493 98.0394 127.949 96 131.862 96C135.875 96 139.407 98.1443 141.465 101.395C145.379 93.4592 153.552 88 163 88ZM101 92C89.9543 92 81 100.954 81 112C81 123.046 89.9543 132 101 132C112.046 132 121 123.046 121 112C121 100.954 112.046 92 101 92ZM163 92C151.954 92 143 100.954 143 112C143 123.046 151.954 132 163 132C174.046 132 183 123.046 183 112C183 100.954 174.046 92 163 92Z" fill="black"/>
</g>
<path d="M163 88C171.92 88 179.703 92.8659 183.84 100.088C184.05 100.031 184.271 100 184.5 100H192.5C193.881 100 195 101.119 195 102.5C195 103.881 193.881 105 192.5 105L185.963 105C186.637 107.215 187 109.565 187 112C187 125.255 176.255 136 163 136C149.745 136 139 125.255 139 112C139 110.582 139.123 109.192 139.359 107.841C139.281 103.461 135.917 100 131.862 100C128.124 100 124.973 102.942 124.441 106.834C124.808 108.498 125 110.227 125 112C125 125.255 114.255 136 101 136C87.7452 136 77 125.255 77 112C77 109.565 77.3627 107.215 78.0369 105L71.5 105C70.1193 105 69 103.881 69 102.5C69 101.119 70.1193 100 71.5 100H79.5C79.7286 100 79.95 100.031 80.1604 100.088C84.2971 92.8659 92.0803 88 101 88C110.352 88 118.455 93.3493 122.416 101.155C124.493 98.0394 127.949 96 131.862 96C135.875 96 139.407 98.1443 141.465 101.395C145.379 93.4592 153.552 88 163 88ZM101 92C89.9543 92 81 100.954 81 112C81 123.046 89.9543 132 101 132C112.046 132 121 123.046 121 112C121 100.954 112.046 92 101 92ZM163 92C151.954 92 143 100.954 143 112C143 123.046 151.954 132 163 132C174.046 132 183 123.046 183 112C183 100.954 174.046 92 163 92Z" fill="#252C2F"/>
</g>
<defs>
<filter id="filter0_d" x="65" y="86" width="134" height="56" filterUnits="userSpaceOnUse" color-interpolation-filters="sRGB">
<feFlood flood-opacity="0" result="BackgroundImageFix"/>
<feColorMatrix in="SourceAlpha" type="matrix" values="0 0 0 0 0 0 0 0 0 0 0 0 0 0 0 0 0 0 127 0"/>
<feOffset dy="2"/>
<feGaussianBlur stdDeviation="2"/>
<feColorMatrix type="matrix" values="0 0 0 0 0 0 0 0 0 0 0 0 0 0 0 0 0 0 0.1 0"/>
<feBlend mode="normal" in2="BackgroundImageFix" result="effect1_dropShadow"/>
<feBlend mode="normal" in="SourceGraphic" in2="effect1_dropShadow" result="shape"/>
</filter>
</defs>
</svg>
