<svg width="264" height="280" viewBox="0 0 264 280" fill="none" xmlns="http://www.w3.org/2000/svg">
<mask id="mask0" mask-type="alpha" maskUnits="userSpaceOnUse" x="32" y="36" width="200" height="244">
<path d="M132 36C162.928 36 188 61.0721 188 92L188.001 98.1661C193.676 99.1185 198 104.054 198 110V124C198 130.052 193.519 135.058 187.694 135.881C185.628 155.686 173.238 172.422 156.001 180.61L156 199H160C199.764 199 232 231.236 232 271V280H32V271C32 231.236 64.2355 199 104 199H108L108 180.611C90.7626 172.422 78.3721 155.687 76.3051 135.881C70.4808 135.058 66 130.052 66 124V110C66 104.054 70.3247 99.118 76.0002 98.1659L76 92C76 61.0721 101.072 36 132 36Z" fill="white"/>
</mask>
<g mask="url(#mask0)">
<path d="M132 36C162.928 36 188 61.0721 188 92L188.001 98.1661C193.676 99.1185 198 104.054 198 110V124C198 130.052 193.519 135.058 187.694 135.881C185.628 155.686 173.238 172.422 156.001 180.61L156 199H160C199.764 199 232 231.236 232 271V280H32V271C32 231.236 64.2355 199 104 199H108L108 180.611C90.7626 172.422 78.3721 155.687 76.3051 135.881C70.4808 135.058 66 130.052 66 124V110C66 104.054 70.3247 99.118 76.0002 98.1659L76 92C76 61.0721 101.072 36 132 36Z" fill="#D0C6AC"/>
<path d="M264 36H0V280H264V36Z" fill="#EDB98A"/>
<path fill-rule="evenodd" clip-rule="evenodd" d="M76 130C76 160.928 101.072 186 132 186C162.928 186 188 160.928 188 130V138C188 168.928 162.928 194 132 194C101.072 194 76 168.928 76 138V130Z" fill="black" fill-opacity="0.1"/>
</g>
<mask id="mask1" mask-type="alpha" maskUnits="userSpaceOnUse" x="32" y="202" width="200" height="78">
<path d="M83 206.348C83 222.629 105.162 235.828 132.5 235.828C159.838 235.828 182 222.629 182 206.348C182 204.985 181.845 203.645 181.544 202.331C210.784 211.488 232 238.792 232 271.052V280H32V271.052C32 238.397 53.7387 210.82 83.5337 202.002C83.1822 203.421 83 204.872 83 206.348Z" fill="white"/>
</mask>
<g mask="url(#mask1)">
<path d="M83 206.348C83 222.629 105.162 235.828 132.5 235.828C159.838 235.828 182 222.629 182 206.348C182 204.985 181.845 203.645 181.544 202.331C210.784 211.488 232 238.792 232 271.052V280H32V271.052C32 238.397 53.7387 210.82 83.5337 202.002C83.1822 203.421 83 204.872 83 206.348Z" fill="#E6E6E6"/>
<path d="M264 170H0V280H264V170Z" fill="#E6E6E6"/>
</g>
<path fill-rule="evenodd" clip-rule="evenodd" d="M118 149C118 156.732 124.268 163 132 163C139.732 163 146 156.732 146 149" fill="black" fill-opacity="0.7"/>
<path fill-rule="evenodd" clip-rule="evenodd" d="M120 130C120 134.418 125.373 138 132 138C138.627 138 144 134.418 144 130" fill="black" fill-opacity="0.16"/>
<path d="M106 118C109.314 118 112 115.314 112 112C112 108.686 109.314 106 106 106C102.686 106 100 108.686 100 112C100 115.314 102.686 118 106 118Z" fill="black" fill-opacity="0.6"/>
<path d="M158 118C161.314 118 164 115.314 164 112C164 108.686 161.314 106 158 106C154.686 106 152 108.686 152 112C152 115.314 154.686 118 158 118Z" fill="black" fill-opacity="0.6"/>
<path d="M91.6303 99.1586C95.5452 93.6499 106.278 90.5608 115.523 92.8312C116.596 93.0946 117.679 92.4386 117.942 91.3659C118.206 90.2932 117.55 89.21 116.477 88.9466C105.74 86.31 93.3121 89.887 88.3698 96.8414C87.7299 97.7418 87.9411 98.9904 88.8414 99.6303C89.7418 100.27 90.9904 100.059 91.6303 99.1586Z" fill="black" fill-opacity="0.6"/>
<path d="M172.37 99.1586C168.455 93.6499 157.722 90.5608 148.477 92.8312C147.405 93.0946 146.321 92.4386 146.058 91.3659C145.795 90.2932 146.451 89.21 147.523 88.9466C158.26 86.31 170.688 89.887 175.631 96.8414C176.27 97.7418 176.059 98.9904 175.159 99.6303C174.259 100.27 173.01 100.059 172.37 99.1586Z" fill="black" fill-opacity="0.6"/>
<mask id="mask2" mask-type="alpha" maskUnits="userSpaceOnUse" x="0" y="0" width="264" height="280">
<path d="M264 0H0V280H264V0Z" fill="white"/>
</mask>
<g mask="url(#mask2)">
<mask id="mask3" mask-type="alpha" maskUnits="userSpaceOnUse" x="96" y="45" width="96" height="14">
<path d="M98.0192 59H175.978C192.878 55.8026 196.051 50.1282 184.094 45.2004C181.118 43.9736 175.978 48.769 160.18 49.0651C144.383 49.3612 145.9 47.1514 129.089 47.9788C112.278 48.8061 114.135 53.2345 103.166 54.297C95.8527 55.0054 94.1372 56.5731 98.0192 59Z" fill="#724133"/>
</mask>
<g mask="url(#mask3)">
<path d="M259.251 42.1857H14.7494V127.227H259.251V42.1857Z" fill="#724133"/>
</g>
<path d="M176 59C161.931 60.7507 153.648 61.0151 137.5 59C147.021 56.2 152.296 54.9075 161.5 53.5C170.167 52.7705 172.729 54.5617 176 59Z" fill="#724133"/>
<path d="M109.383 67.0474C105.841 68.2552 103.28 69.0571 98.2848 70.5803C89.5215 74.572 85.2092 77.3762 75.5762 80.5494C69.2541 80.7427 64.6051 79.3272 62.7096 74.2923C60.509 62.3077 62.0105 57.145 66.8002 51.0666C80.3943 30.788 92.2149 24.2013 120.553 20.6235L115.258 16.6977C114.596 14.2931 118.951 15.3755 119.47 15.444C119.989 15.5125 125.562 20.508 125.562 20.508C135.487 22.0336 140.997 23.0715 150.553 25.9072C159.467 28.6417 165.605 29.8176 173.951 32.8755C185.544 37.8834 189.676 42.0797 192.514 52.1089C193.202 55.8093 191.98 58.2587 189.727 61.2428C187.44 63.4065 183.487 63.1472 181.951 63.3755C180.414 63.6037 177.057 61.2666 175.175 57.1676C170.884 52.7062 168.121 52.5909 162.951 53.3755C149.313 55.5554 142.038 56.8505 128.906 61.0071L109.383 67.0474Z" fill="url(#paint0_linear)"/>
</g>
<g filter="url(#filter0_d)">
<path fill-rule="evenodd" clip-rule="evenodd" d="M117.234 104.616C119.4 104.63 120.424 104.88 120.793 106.45C121.167 108.04 120.803 109.827 120.372 111.393C119.714 113.784 118.62 116.127 116.073 117.875C114.732 118.795 113.095 119.529 111.355 120.03C110.431 120.296 109.455 120.488 108.479 120.634C108.194 120.676 105.758 120.909 107.252 120.791C103.766 121.067 99.9851 121.056 97.0741 119.515C93.848 117.806 91.6387 115.102 90.6672 112.409C90.0988 110.834 88.9045 107.065 91.0867 105.805C93.5865 104.362 117.234 104.616 117.234 104.616ZM95.2892 100.31C90.3211 100.429 87.0055 101.036 84.5551 104.485C80.0643 110.806 87.7507 120.287 96.3252 122.87C106.349 125.89 117.548 122.548 122.847 116.502C125.654 113.302 127.073 108.454 126.981 104.761C126.865 100.048 122.127 99.9169 116.559 100.021L95.2892 100.31Z" fill="#D6EAF2"/>
<path fill-rule="evenodd" clip-rule="evenodd" d="M147.764 104.615C145.598 104.63 144.574 104.88 144.205 106.449C143.831 108.039 144.195 109.826 144.626 111.392C145.284 113.784 146.378 116.126 148.925 117.874C150.267 118.794 151.903 119.528 153.643 120.029C154.568 120.295 155.544 120.487 156.519 120.633C156.805 120.675 159.24 120.909 157.746 120.79C161.232 121.067 165.013 121.056 167.924 119.514C171.15 117.805 173.36 115.102 174.331 112.409C174.899 110.833 176.093 107.064 173.912 105.804C171.412 104.361 147.764 104.615 147.764 104.615ZM169.709 100.31C174.677 100.428 177.993 101.035 180.443 104.484C184.934 110.806 177.248 120.286 168.673 122.869C158.649 125.89 147.451 122.547 142.151 116.502C139.344 113.301 137.926 108.453 138.017 104.76C138.133 100.047 142.871 99.9161 148.44 100.02L169.709 100.31Z" fill="#D6EAF2"/>
<path fill-rule="evenodd" clip-rule="evenodd" d="M87.0514 103.127C83.9356 103.248 80.3751 103.277 77.4566 104.213C74.3657 105.205 73.8881 107.449 77.7845 107.759C79.5395 107.898 81.2964 107.668 83.0244 107.453C84.4396 107.278 86.362 107.335 87.6993 106.959C90.1915 106.259 90.0315 103.008 87.0514 103.127Z" fill="#D6EAF2"/>
<path fill-rule="evenodd" clip-rule="evenodd" d="M177.949 103.127C181.064 103.248 184.625 103.277 187.543 104.213C190.634 105.205 191.112 107.449 187.215 107.759C185.461 107.898 183.704 107.668 181.976 107.453C180.56 107.278 178.638 107.335 177.301 106.959C174.808 106.259 174.968 103.008 177.949 103.127Z" fill="#D6EAF2"/>
<path fill-rule="evenodd" clip-rule="evenodd" d="M141.763 104.45C139.986 102.991 135.354 102.148 132.432 102.148C129.51 102.148 125.014 102.991 123.237 104.45C122.341 105.186 122.31 106.171 123.864 106.632C125.798 107.207 127.525 106.165 129.073 105.62C131.053 104.922 134.095 104.999 135.927 105.62C137.487 106.148 139.202 107.207 141.137 106.632C142.69 106.171 142.659 105.186 141.763 104.45Z" fill="#D6EAF2"/>
</g>
<defs>
<filter id="filter0_d" x="71" y="98" width="123" height="31.9999" filterUnits="userSpaceOnUse" color-interpolation-filters="sRGB">
<feFlood flood-opacity="0" result="BackgroundImageFix"/>
<feColorMatrix in="SourceAlpha" type="matrix" values="0 0 0 0 0 0 0 0 0 0 0 0 0 0 0 0 0 0 127 0"/>
<feOffset dy="2"/>
<feGaussianBlur stdDeviation="2"/>
<feColorMatrix type="matrix" values="0 0 0 0 0 0 0 0 0 0 0 0 0 0 0 0 0 0 0.1 0"/>
<feBlend mode="normal" in2="BackgroundImageFix" result="effect1_dropShadow"/>
<feBlend mode="normal" in="SourceGraphic" in2="effect1_dropShadow" result="shape"/>
</filter>
<linearGradient id="paint0_linear" x1="147.951" y1="30.8755" x2="85.4509" y2="65.8754" gradientUnits="userSpaceOnUse">
<stop stop-color="#D03333"/>
<stop offset="0.753227" stop-color="#940F0F"/>
</linearGradient>
</defs>
</svg>
