<svg width="264" height="280" viewBox="0 0 264 280" fill="none" xmlns="http://www.w3.org/2000/svg">
<mask id="mask0" mask-type="alpha" maskUnits="userSpaceOnUse" x="32" y="36" width="200" height="244">
<path d="M132 36C162.928 36 188 61.0721 188 92L188.001 98.1661C193.676 99.1185 198 104.054 198 110V124C198 130.052 193.519 135.058 187.694 135.881C185.628 155.686 173.238 172.422 156.001 180.61L156 199H160C199.764 199 232 231.236 232 271V280H32V271C32 231.236 64.2355 199 104 199H108L108 180.611C90.7626 172.422 78.3721 155.687 76.3051 135.881C70.4808 135.058 66 130.052 66 124V110C66 104.054 70.3247 99.118 76.0002 98.1659L76 92C76 61.0721 101.072 36 132 36Z" fill="white"/>
</mask>
<g mask="url(#mask0)">
<path d="M132 36C162.928 36 188 61.0721 188 92L188.001 98.1661C193.676 99.1185 198 104.054 198 110V124C198 130.052 193.519 135.058 187.694 135.881C185.628 155.686 173.238 172.422 156.001 180.61L156 199H160C199.764 199 232 231.236 232 271V280H32V271C32 231.236 64.2355 199 104 199H108L108 180.611C90.7626 172.422 78.3721 155.687 76.3051 135.881C70.4808 135.058 66 130.052 66 124V110C66 104.054 70.3247 99.118 76.0002 98.1659L76 92C76 61.0721 101.072 36 132 36Z" fill="#D0C6AC"/>
<path d="M264 36H0V280H264V36Z" fill="#EDB98A"/>
<path fill-rule="evenodd" clip-rule="evenodd" d="M76 130C76 160.928 101.072 186 132 186C162.928 186 188 160.928 188 130V138C188 168.928 162.928 194 132 194C101.072 194 76 168.928 76 138V130Z" fill="black" fill-opacity="0.1"/>
</g>
<mask id="mask1" mask-type="alpha" maskUnits="userSpaceOnUse" x="32" y="202" width="200" height="78">
<path d="M83 206.348C83 222.629 105.162 235.828 132.5 235.828C159.838 235.828 182 222.629 182 206.348C182 204.985 181.845 203.645 181.544 202.331C210.784 211.488 232 238.792 232 271.052V280H32V271.052C32 238.397 53.7387 210.82 83.5337 202.002C83.1822 203.421 83 204.872 83 206.348Z" fill="white"/>
</mask>
<g mask="url(#mask1)">
<path d="M83 206.348C83 222.629 105.162 235.828 132.5 235.828C159.838 235.828 182 222.629 182 206.348C182 204.985 181.845 203.645 181.544 202.331C210.784 211.488 232 238.792 232 271.052V280H32V271.052C32 238.397 53.7387 210.82 83.5337 202.002C83.1822 203.421 83 204.872 83 206.348Z" fill="#E6E6E6"/>
<path d="M264 170H0V280H264V170Z" fill="#E6E6E6"/>
</g>
<mask id="mask2" mask-type="alpha" maskUnits="userSpaceOnUse" x="106" y="147" width="52" height="20">
<path d="M107 149.609C108.41 159.231 119.062 167 132 167C144.968 167 155.646 159.183 157 148.739C157.101 148.34 156.775 147 154.826 147C134.838 147 119.74 147 109.174 147C107.383 147 106.87 148.24 107 149.609Z" fill="white"/>
</mask>
<g mask="url(#mask2)">
<path d="M107 149.609C108.41 159.231 119.062 167 132 167C144.968 167 155.646 159.183 157 148.739C157.101 148.34 156.775 147 154.826 147C134.838 147 119.74 147 109.174 147C107.383 147 106.87 148.24 107 149.609Z" fill="black" fill-opacity="0.7"/>
<path fill-rule="evenodd" clip-rule="evenodd" d="M122 136H143C145.761 136 148 138.239 148 141V147C148 149.761 145.761 152 143 152H122C119.239 152 117 149.761 117 147V141C117 138.239 119.239 136 122 136Z" fill="white"/>
<path fill-rule="evenodd" clip-rule="evenodd" d="M137.5 154C141.09 154 144 155.567 144 157.5C144 157.583 143.995 157.665 143.984 157.747C143.995 157.829 144 157.914 144 158V167C144 173.075 139.075 178 133 178H132C125.925 178 121 173.075 121 167V158C121 157.914 121.005 157.829 121.016 157.746C121.005 157.665 121 157.583 121 157.5C121 155.567 123.91 154 127.5 154C129.511 154 131.309 154.492 132.501 155.264C133.692 154.492 135.489 154 137.5 154Z" fill="#FF4F6D"/>
</g>
<path fill-rule="evenodd" clip-rule="evenodd" d="M120 130C120 134.418 125.373 138 132 138C138.627 138 144 134.418 144 130" fill="black" fill-opacity="0.16"/>
<path d="M106 118C109.314 118 112 115.314 112 112C112 108.686 109.314 106 106 106C102.686 106 100 108.686 100 112C100 115.314 102.686 118 106 118Z" fill="black" fill-opacity="0.6"/>
<path d="M158 118C161.314 118 164 115.314 164 112C164 108.686 161.314 106 158 106C154.686 106 152 108.686 152 112C152 115.314 154.686 118 158 118Z" fill="black" fill-opacity="0.6"/>
<path d="M91.6303 99.1586C95.5452 93.6499 106.278 90.5608 115.523 92.8312C116.596 93.0946 117.679 92.4386 117.942 91.3659C118.206 90.2932 117.55 89.21 116.477 88.9466C105.74 86.31 93.3121 89.887 88.3698 96.8414C87.7299 97.7418 87.9411 98.9904 88.8414 99.6303C89.7418 100.27 90.9904 100.059 91.6303 99.1586Z" fill="black" fill-opacity="0.6"/>
<path d="M172.37 99.1586C168.455 93.6499 157.722 90.5608 148.477 92.8312C147.405 93.0946 146.321 92.4386 146.058 91.3659C145.795 90.2932 146.451 89.21 147.523 88.9466C158.26 86.31 170.688 89.887 175.631 96.8414C176.27 97.7418 176.059 98.9904 175.159 99.6303C174.259 100.27 173.01 100.059 172.37 99.1586Z" fill="black" fill-opacity="0.6"/>
<mask id="mask3" mask-type="alpha" maskUnits="userSpaceOnUse" x="0" y="0" width="264" height="280">
<path d="M264 0H0V280H264V0Z" fill="white"/>
</mask>
<g mask="url(#mask3)">
<mask id="mask4" mask-type="alpha" maskUnits="userSpaceOnUse" x="50" y="21" width="170" height="259">
<path d="M132 21C169.555 21 200 51.4446 200 89L200 119.754C200.875 129.556 201.694 136.423 202.456 140.354C203.833 147.458 208.15 145.115 208.15 155.22C208.15 165.325 203.822 168.72 203.803 177.705C203.784 186.691 219.2 193.836 219.2 205.243C219.2 216.649 212.126 270.476 141.578 270.476C126.507 270.476 113.67 266.188 103.066 257.613C103.75 264.103 104.394 271.566 105 280H58C58.9324 256.229 50.7157 242.936 50.7157 216.446C50.7157 189.955 64.3526 151.428 64 142C64.0202 141.412 64.0411 140.714 64.0627 139.908C64.0205 138.943 64 137.974 64 137V89C64 85.0286 64.3405 81.1366 64.9938 77.3518C64.9972 77.2355 64.9986 77.1178 65 77L65.0418 77.0774C70.6782 45.207 98.5122 21 132 21ZM132.5 53H131.5C101.4 53 77 77.4005 77 107.5V130.5C77 160.6 101.4 185 131.5 185H132.5C162.6 185 187 160.6 187 130.5V107.5C187 77.4005 162.6 53 132.5 53Z" fill="white"/>
</mask>
<g mask="url(#mask4)">
<path d="M132 21C169.555 21 200 51.4446 200 89L200 119.754C200.875 129.556 201.694 136.423 202.456 140.354C203.833 147.458 208.15 145.115 208.15 155.22C208.15 165.325 203.822 168.72 203.803 177.705C203.784 186.691 219.2 193.836 219.2 205.243C219.2 216.649 212.126 270.476 141.578 270.476C126.507 270.476 113.67 266.188 103.066 257.613C103.75 264.103 104.394 271.566 105 280H58C58.9324 256.229 50.7157 242.936 50.7157 216.446C50.7157 189.955 64.3526 151.428 64 142C64.0202 141.412 64.0411 140.714 64.0627 139.908C64.0205 138.943 64 137.974 64 137V89C64 85.0286 64.3405 81.1366 64.9938 77.3518C64.9972 77.2355 64.9986 77.1178 65 77L65.0418 77.0774C70.6782 45.207 98.5122 21 132 21ZM132.5 53H131.5C101.4 53 77 77.4005 77 107.5V130.5C77 160.6 101.4 185 131.5 185H132.5C162.6 185 187 160.6 187 130.5V107.5C187 77.4005 162.6 53 132.5 53Z" fill="#3B6BAD"/>
<path d="M264 0H0V280H264V0Z" fill="#25557C"/>
<path fill-rule="evenodd" clip-rule="evenodd" d="M132 32C166.242 32 194 59.5345 194 93.5C194 97.4141 193.631 101.243 192.927 104.954C191.338 72.6796 164.668 47 132 47C99.3321 47 72.6621 72.6796 71.0747 104.954C70.3686 101.243 70 97.4141 70 93.5C70 59.5345 97.7583 32 132 32Z" fill="white" fill-opacity="0.5"/>
<path opacity="0.9" fill-rule="evenodd" clip-rule="evenodd" d="M197.661 209.489C197.803 209.809 197.935 210.135 198.056 210.467C202.583 222.904 189.979 238.909 169.905 246.216C149.831 253.522 129.888 249.363 125.361 236.926C125.24 236.594 125.131 236.259 125.035 235.922C133.228 241.575 149.422 241.844 166.104 235.772C182.756 229.711 194.975 219.123 197.646 209.54L197.661 209.489ZM186.05 194.145C186.118 194.397 186.175 194.653 186.221 194.911C187.931 204.606 172.985 215.345 152.84 218.898C132.695 222.45 114.978 217.47 113.268 207.775C113.223 207.516 113.189 207.257 113.167 206.997C119.654 211.981 134.665 213.708 151.405 210.756C168.116 207.81 181.613 201.071 186.026 194.181L186.05 194.145ZM188 115.5V138.5C188 168.6 163.6 193 133.5 193H130.5C100.4 193 76 168.6 76 138.5V115.5C76 111.802 76.3683 108.19 77.0702 104.699C77.0238 105.627 77 106.561 77 107.5V130.5C77 160.6 101.4 185 131.5 185H132.5C162.6 185 187 160.6 187 130.5V107.5C187 106.561 186.976 105.627 186.929 104.7C187.632 108.19 188 111.802 188 115.5Z" fill="black" fill-opacity="0.16"/>
</g>
</g>
</svg>
