<svg width="264" height="280" viewBox="0 0 264 280" fill="none" xmlns="http://www.w3.org/2000/svg">
<mask id="mask0" mask-type="alpha" maskUnits="userSpaceOnUse" x="32" y="36" width="200" height="244">
<path d="M132 36C162.928 36 188 61.0721 188 92L188.001 98.1661C193.676 99.1185 198 104.054 198 110V124C198 130.052 193.519 135.058 187.694 135.881C185.628 155.686 173.238 172.422 156.001 180.61L156 199H160C199.764 199 232 231.236 232 271V280H32V271C32 231.236 64.2355 199 104 199H108L108 180.611C90.7626 172.422 78.3721 155.687 76.3051 135.881C70.4808 135.058 66 130.052 66 124V110C66 104.054 70.3247 99.118 76.0002 98.1659L76 92C76 61.0721 101.072 36 132 36Z" fill="white"/>
</mask>
<g mask="url(#mask0)">
<path d="M132 36C162.928 36 188 61.0721 188 92L188.001 98.1661C193.676 99.1185 198 104.054 198 110V124C198 130.052 193.519 135.058 187.694 135.881C185.628 155.686 173.238 172.422 156.001 180.61L156 199H160C199.764 199 232 231.236 232 271V280H32V271C32 231.236 64.2355 199 104 199H108L108 180.611C90.7626 172.422 78.3721 155.687 76.3051 135.881C70.4808 135.058 66 130.052 66 124V110C66 104.054 70.3247 99.118 76.0002 98.1659L76 92C76 61.0721 101.072 36 132 36Z" fill="#D0C6AC"/>
<path d="M264 36H0V280H264V36Z" fill="#AE5D29"/>
<path fill-rule="evenodd" clip-rule="evenodd" d="M76 130C76 160.928 101.072 186 132 186C162.928 186 188 160.928 188 130V138C188 168.928 162.928 194 132 194C101.072 194 76 168.928 76 138V130Z" fill="black" fill-opacity="0.1"/>
</g>
<mask id="mask1" mask-type="alpha" maskUnits="userSpaceOnUse" x="32" y="202" width="200" height="78">
<path d="M83 206.348C83 222.629 105.162 235.828 132.5 235.828C159.838 235.828 182 222.629 182 206.348C182 204.985 181.845 203.645 181.544 202.331C210.784 211.488 232 238.792 232 271.052V280H32V271.052C32 238.397 53.7387 210.82 83.5337 202.002C83.1822 203.421 83 204.872 83 206.348Z" fill="#FFCE52"/>
</mask>
<g mask="url(#mask1)">
<path d="M83 206.348C83 222.629 105.162 235.828 132.5 235.828C159.838 235.828 182 222.629 182 206.348C182 204.985 181.845 203.645 181.544 202.331C210.784 211.488 232 238.792 232 271.052V280H32V271.052C32 238.397 53.7387 210.82 83.5337 202.002C83.1822 203.421 83 204.872 83 206.348Z" fill="#E6E6E6"/>
<path d="M264 170H0V280H264V170Z" fill="#FFCE52"/>
</g>
<mask id="mask2" mask-type="alpha" maskUnits="userSpaceOnUse" x="113" y="147" width="38" height="19">
<path d="M113.118 149.128C114.176 158.62 122.226 166 132 166C141.804 166 149.874 158.574 150.892 149.04C150.974 148.273 150.117 147 149.043 147C134.149 147 122.738 147 115.087 147C114.007 147 113.012 148.178 113.118 149.128Z" fill="white"/>
</mask>
<g mask="url(#mask2)">
<path d="M113.118 149.128C114.176 158.62 122.226 166 132 166C141.804 166 149.874 158.574 150.892 149.04C150.974 148.273 150.117 147 149.043 147C134.149 147 122.738 147 115.087 147C114.007 147 113.012 148.178 113.118 149.128Z" fill="black" fill-opacity="0.7"/>
<path fill-rule="evenodd" clip-rule="evenodd" d="M122 136H143C145.761 136 148 138.239 148 141V147C148 149.761 145.761 152 143 152H122C119.239 152 117 149.761 117 147V141C117 138.239 119.239 136 122 136Z" fill="white"/>
<path d="M127 180C133.075 180 138 175.075 138 169C138 162.925 133.075 158 127 158C120.925 158 116 162.925 116 169C116 175.075 120.925 180 127 180Z" fill="#FF4F6D"/>
<path d="M137 180C143.075 180 148 175.075 148 169C148 162.925 143.075 158 137 158C130.925 158 126 162.925 126 169C126 175.075 130.925 180 137 180Z" fill="#FF4F6D"/>
</g>
<path fill-rule="evenodd" clip-rule="evenodd" d="M120 130C120 134.418 125.373 138 132 138C138.627 138 144 134.418 144 130" fill="black" fill-opacity="0.16"/>
<path d="M106 118C109.314 118 112 115.314 112 112C112 108.686 109.314 106 106 106C102.686 106 100 108.686 100 112C100 115.314 102.686 118 106 118Z" fill="black" fill-opacity="0.6"/>
<path d="M158 118C161.314 118 164 115.314 164 112C164 108.686 161.314 106 158 106C154.686 106 152 108.686 152 112C152 115.314 154.686 118 158 118Z" fill="black" fill-opacity="0.6"/>
<path d="M91.6302 99.1586C95.5452 93.6499 106.278 90.5608 115.523 92.8312C116.596 93.0946 117.679 92.4386 117.942 91.3659C118.206 90.2932 117.55 89.21 116.477 88.9466C105.74 86.31 93.3121 89.887 88.3698 96.8414C87.7299 97.7418 87.9411 98.9904 88.8414 99.6303C89.7418 100.27 90.9904 100.059 91.6302 99.1586Z" fill="black" fill-opacity="0.6"/>
<path d="M172.37 99.1586C168.455 93.6499 157.722 90.5608 148.477 92.8312C147.405 93.0946 146.321 92.4386 146.058 91.3659C145.795 90.2932 146.451 89.21 147.523 88.9466C158.26 86.31 170.688 89.887 175.631 96.8414C176.27 97.7418 176.059 98.9904 175.159 99.6303C174.259 100.27 173.01 100.059 172.37 99.1586Z" fill="black" fill-opacity="0.6"/>
<mask id="mask3" mask-type="alpha" maskUnits="userSpaceOnUse" x="0" y="0" width="264" height="280">
<path d="M264 0H0V280H264V0Z" fill="white"/>
</mask>
<g mask="url(#mask3)">
<mask id="mask4" mask-type="alpha" maskUnits="userSpaceOnUse" x="0" y="0" width="264" height="280">
<path d="M264 0V280H232V271C232 231.236 199.764 199 160 199H156L156.001 180.61C173.531 172.282 186.048 155.114 187.791 134.867C193.569 134.003 198 129.019 198 123V110C198 104.054 193.676 99.1185 188.001 98.1661L188 92C188 84.0547 186.345 76.4958 183.362 69.6492C173.435 53 89.3126 53.8034 80.7099 69.4855C77.6812 76.3752 76 83.9913 76 92L76.0002 98.1659C70.3247 99.118 66 104.054 66 110V123C66 129.019 70.4311 134.003 76.209 134.867C77.9518 155.115 90.4692 172.283 108 180.611L108 199H104C64.6331 199 32.6455 230.594 32.0096 269.809L32 271V280H0V0H264Z" fill="white"/>
</mask>
<g mask="url(#mask4)">
<path fill-rule="evenodd" clip-rule="evenodd" d="M123.182 2H141.818C160.609 2 176.867 15.0804 180.89 33.4362L190 75H75L84.1099 33.4362C88.133 15.0804 104.391 2 123.182 2Z" fill="#1F333C"/>
<path d="M132 145C199.379 145 254 119.256 254 87.5C254 55.7436 199.379 30 132 30C64.6213 30 10 55.7436 10 87.5C10 119.256 64.6213 145 132 145Z" fill="#1F333C"/>
<path d="M132 107C166.242 107 194 95.8071 194 82C194 68.1929 166.242 57 132 57C97.7583 57 70 68.1929 70 82C70 95.8071 97.7583 107 132 107Z" fill="#15232A"/>
</g>
<g filter="url(#filter0_d)">
<path d="M123.713 112.5C123.713 122.202 115.463 130.071 101.716 130.071H98.9659C85.2186 130.071 79.7185 122.199 79.7185 112.5C79.7185 102.795 81.0026 94.9286 100.25 94.9286H103.182C122.429 94.9286 123.713 102.795 123.713 112.5Z" fill="black" fill-opacity="0.7"/>
<path style="mix-blend-mode:screen" d="M123.713 112.5C123.713 122.202 115.463 130.071 101.716 130.071H98.9659C85.2186 130.071 79.7185 122.199 79.7185 112.5C79.7185 102.795 81.0026 94.9286 100.25 94.9286H103.182C122.429 94.9286 123.713 102.795 123.713 112.5Z" fill="url(#paint0_linear)"/>
<path d="M185.282 112.5C185.282 122.202 177.034 130.071 163.284 130.071H160.534C146.787 130.071 141.287 122.199 141.287 112.5C141.287 102.795 142.571 94.9286 161.818 94.9286H164.75C183.994 94.9286 185.282 102.795 185.282 112.5Z" fill="black" fill-opacity="0.7"/>
<path style="mix-blend-mode:screen" d="M185.282 112.5C185.282 122.202 177.034 130.071 163.284 130.071H160.534C146.787 130.071 141.287 122.199 141.287 112.5C141.287 102.795 142.571 94.9286 161.818 94.9286H164.75C183.994 94.9286 185.282 102.795 185.282 112.5Z" fill="url(#paint1_linear)"/>
<path d="M103.182 92C124.833 92 126.645 102.127 126.645 112.5C126.645 124.569 116.396 133 101.716 133H98.9659C85.0778 133 76.7867 125.336 76.7867 112.5C76.7867 102.127 78.5985 92 100.25 92H103.182ZM103.182 97.8542H100.25C83.0023 97.8542 82.6573 104.062 82.6504 112.011L82.6503 112.5C82.6503 119.18 85.4795 127.143 98.9659 127.143H101.716C112.942 127.143 120.782 121.122 120.782 112.5L120.781 111.768C120.781 111.688 120.781 111.607 120.78 111.527L120.778 111.047C120.718 103.565 119.726 97.8542 103.182 97.8542Z" fill="#252C2F"/>
<path d="M164.75 92C186.401 92 188.213 102.127 188.213 112.5C188.213 124.569 177.964 133 163.284 133H160.534C146.646 133 138.355 125.336 138.355 112.5C138.355 102.127 140.167 92 161.818 92H164.75ZM164.75 97.8542H161.818C144.57 97.8542 144.226 104.062 144.219 112.011L144.218 112.5C144.218 119.18 147.051 127.143 160.534 127.143H163.284C174.51 127.143 182.35 121.122 182.35 112.5L182.349 111.768C182.349 111.688 182.349 111.607 182.349 111.527L182.346 111.047C182.286 103.565 181.294 97.8542 164.75 97.8542Z" fill="#252C2F"/>
<path d="M70.9318 97.8571C71.6179 97.1719 79.1233 92 100.25 92C117.964 92 121.714 93.8801 127.39 96.7209L127.805 96.9305C128.2 97.0731 130.218 97.7742 132.578 97.8513C134.729 97.7569 136.568 97.1608 137.106 96.9698C143.584 93.7476 149.926 92 164.75 92C185.877 92 193.382 97.1719 194.068 97.8571C195.689 97.8571 197 99.1662 197 100.786V103.714C197 105.334 195.689 106.643 194.068 106.643C194.068 106.643 188.205 106.643 188.205 109.571C188.205 112.5 185.273 105.334 185.273 103.714V100.862C181.697 99.4624 175.297 97.8571 164.75 97.8571C153 97.8571 147.148 98.9881 142.128 101.104L142.184 101.243L139.688 102.25L142.181 103.258L139.981 108.687L137.264 107.589C137.021 107.49 136.497 107.314 135.771 107.131C133.747 106.62 131.665 106.465 129.825 106.851C129.15 106.993 128.523 107.206 127.948 107.493L125.326 108.803L122.703 103.565L125.325 102.255L125.331 102.252L122.819 101.237L122.899 101.039C118.57 98.9758 114.578 97.8571 100.25 97.8571C89.7039 97.8571 83.3035 99.4615 79.7273 100.861V103.714C79.7273 105.334 76.7955 112.5 76.7955 109.571C76.7955 106.643 70.9318 106.643 70.9318 106.643C69.3135 106.643 68 105.334 68 103.714V100.786C68 99.1662 69.3135 97.8571 70.9318 97.8571Z" fill="#252C2F"/>
</g>
</g>
<defs>
<filter id="filter0_d" x="64" y="90" width="137" height="49" filterUnits="userSpaceOnUse" color-interpolation-filters="sRGB">
<feFlood flood-opacity="0" result="BackgroundImageFix"/>
<feColorMatrix in="SourceAlpha" type="matrix" values="0 0 0 0 0 0 0 0 0 0 0 0 0 0 0 0 0 0 127 0"/>
<feOffset dy="2"/>
<feGaussianBlur stdDeviation="2"/>
<feColorMatrix type="matrix" values="0 0 0 0 0 0 0 0 0 0 0 0 0 0 0 0 0 0 0.2 0"/>
<feBlend mode="normal" in2="BackgroundImageFix" result="effect1_dropShadow"/>
<feBlend mode="normal" in="SourceGraphic" in2="effect1_dropShadow" result="shape"/>
</filter>
<linearGradient id="paint0_linear" x1="101.716" y1="94.9286" x2="101.716" y2="130.071" gradientUnits="userSpaceOnUse">
<stop stop-color="white" stop-opacity="0.5"/>
<stop offset="0.705058" stop-opacity="0.5"/>
</linearGradient>
<linearGradient id="paint1_linear" x1="163.284" y1="94.9286" x2="163.284" y2="130.071" gradientUnits="userSpaceOnUse">
<stop stop-color="white" stop-opacity="0.5"/>
<stop offset="0.705058" stop-opacity="0.5"/>
</linearGradient>
</defs>
</svg>
