<svg width="330" height="102" viewBox="0 0 330 102" fill="none" xmlns="http://www.w3.org/2000/svg">
<path d="M4.224 20.68H31.104V28.104H13.952V36.36H29.44V43.72H13.952V53.576H31.296V61H4.224V20.68ZM37.788 32.968C39.5373 31.944 41.5 31.1333 43.676 30.536C45.8947 29.896 48.156 29.576 50.46 29.576C54.2573 29.576 57.308 30.4933 59.612 32.328C61.916 34.1627 63.068 37.0853 63.068 41.096V61H55.836L55.004 57.928H54.748C53.8947 59.0373 52.7 59.9547 51.164 60.68C49.6707 61.3627 47.9 61.704 45.852 61.704C44.1027 61.704 42.5667 61.448 41.244 60.936C39.964 60.424 38.8973 59.7413 38.044 58.888C37.1907 58.0347 36.5293 57.032 36.06 55.88C35.6333 54.6853 35.42 53.4267 35.42 52.104C35.42 50.312 35.804 48.776 36.572 47.496C37.3827 46.216 38.4493 45.1707 39.772 44.36C41.1373 43.5493 42.716 42.952 44.508 42.568C46.3427 42.184 48.284 41.992 50.332 41.992H53.532V40.328C53.532 39.176 53.1267 38.3013 52.316 37.704C51.5053 37.064 50.3533 36.744 48.86 36.744C47.58 36.744 46.3213 36.936 45.084 37.32C43.8467 37.704 42.4813 38.3227 40.988 39.176L37.788 32.968ZM53.596 47.752L51.484 47.816C50.2893 47.8587 49.2867 47.9867 48.476 48.2C47.6653 48.4133 47.004 48.6907 46.492 49.032C46.0227 49.3307 45.6813 49.7147 45.468 50.184C45.2547 50.6107 45.148 51.0587 45.148 51.528C45.148 52.8507 45.532 53.768 46.3 54.28C47.1107 54.7493 48.028 54.984 49.052 54.984C50.076 54.984 50.9933 54.6853 51.804 54.088C52.6573 53.4907 53.2547 52.8293 53.596 52.104V47.752ZM89.531 38.152C88.379 37.5973 87.163 37.1707 85.883 36.872C84.603 36.5307 83.3657 36.36 82.171 36.36C81.0617 36.36 80.1657 36.552 79.483 36.936C78.8003 37.32 78.459 37.8533 78.459 38.536C78.459 39.2613 78.779 39.88 79.419 40.392C80.1017 40.8613 81.4243 41.3733 83.387 41.928L85.307 42.504C87.867 43.272 89.8083 44.4027 91.131 45.896C92.4537 47.3467 93.115 49.224 93.115 51.528C93.115 53.064 92.795 54.472 92.155 55.752C91.515 56.9893 90.5977 58.056 89.403 58.952C88.251 59.848 86.843 60.5307 85.179 61C83.5577 61.4693 81.7443 61.704 79.739 61.704C77.563 61.704 75.6217 61.512 73.915 61.128C72.251 60.744 70.6937 60.1893 69.243 59.464L71.291 52.616C72.5283 53.256 73.8083 53.7893 75.131 54.216C76.4963 54.6 77.883 54.792 79.291 54.792C80.9123 54.792 82.043 54.5573 82.683 54.088C83.3657 53.6187 83.707 53.064 83.707 52.424C83.707 52.04 83.6217 51.72 83.451 51.464C83.323 51.1653 83.067 50.888 82.683 50.632C82.299 50.376 81.7443 50.1413 81.019 49.928C80.3363 49.672 79.4403 49.3733 78.331 49.032L76.347 48.456C73.8297 47.6453 71.995 46.536 70.843 45.128C69.691 43.6773 69.115 41.736 69.115 39.304C69.115 37.896 69.3923 36.616 69.947 35.464C70.5017 34.2693 71.291 33.2453 72.315 32.392C73.3817 31.496 74.6617 30.8133 76.155 30.344C77.691 29.832 79.4403 29.576 81.403 29.576C83.3657 29.576 85.179 29.768 86.843 30.152C88.5497 30.4933 90.0857 30.984 91.451 31.624L89.531 38.152ZM95.7605 30.28H106.129L111.185 43.976L113.233 51.464H113.489L115.409 43.848L119.825 30.28H129.489L118.417 61.576C117.819 63.3253 117.115 65.032 116.305 66.696C115.494 68.36 114.491 69.9173 113.297 71.368C112.145 72.8187 110.737 74.1413 109.073 75.336C107.409 76.5307 105.403 77.512 103.057 78.28L99.1525 70.92C101.67 70.024 103.739 68.744 105.361 67.08C107.025 65.416 108.134 63.496 108.689 61.32L108.817 60.808L95.7605 30.28ZM189.691 20.68V28.232H178.683V61H168.955V28.232H158.203V20.68H189.691ZM192.712 61V30.28H200.136L201.096 35.656C201.48 34.888 201.949 34.1413 202.504 33.416C203.059 32.648 203.72 31.9867 204.488 31.432C205.256 30.8773 206.131 30.4293 207.112 30.088C208.136 29.7467 209.267 29.576 210.504 29.576C211.443 29.576 212.296 29.704 213.064 29.96C213.875 30.1733 214.515 30.4293 214.984 30.728L213.448 38.088C212.979 37.832 212.381 37.5973 211.656 37.384C210.931 37.1707 210.035 37.064 208.968 37.064C207.005 37.064 205.363 37.704 204.04 38.984C202.76 40.264 202.12 42.4827 202.12 45.64V61H192.712ZM217.726 32.968C219.475 31.944 221.438 31.1333 223.614 30.536C225.832 29.896 228.094 29.576 230.398 29.576C234.195 29.576 237.246 30.4933 239.55 32.328C241.854 34.1627 243.006 37.0853 243.006 41.096V61H235.774L234.942 57.928H234.686C233.832 59.0373 232.638 59.9547 231.102 60.68C229.608 61.3627 227.838 61.704 225.79 61.704C224.04 61.704 222.504 61.448 221.182 60.936C219.902 60.424 218.835 59.7413 217.982 58.888C217.128 58.0347 216.467 57.032 215.998 55.88C215.571 54.6853 215.358 53.4267 215.358 52.104C215.358 50.312 215.742 48.776 216.51 47.496C217.32 46.216 218.387 45.1707 219.71 44.36C221.075 43.5493 222.654 42.952 224.446 42.568C226.28 42.184 228.222 41.992 230.27 41.992H233.47V40.328C233.47 39.176 233.064 38.3013 232.253 37.704C231.443 37.064 230.291 36.744 228.798 36.744C227.518 36.744 226.259 36.936 225.022 37.32C223.784 37.704 222.419 38.3227 220.926 39.176L217.726 32.968ZM233.534 47.752L231.422 47.816C230.227 47.8587 229.224 47.9867 228.414 48.2C227.603 48.4133 226.942 48.6907 226.43 49.032C225.96 49.3307 225.619 49.7147 225.406 50.184C225.192 50.6107 225.086 51.0587 225.086 51.528C225.086 52.8507 225.47 53.768 226.238 54.28C227.048 54.7493 227.966 54.984 228.99 54.984C230.014 54.984 230.931 54.6853 231.742 54.088C232.595 53.4907 233.192 52.8293 233.534 52.104V47.752ZM268.659 30.28H278.707L267.955 61H256.691L246.451 30.28H256.563L260.275 43.72L262.387 54.408H262.643L264.755 43.72L268.659 30.28ZM310.049 48.392H290.209V48.648C290.209 50.7813 291.041 52.3387 292.705 53.32C294.369 54.3013 296.46 54.792 298.977 54.792C300.726 54.792 302.262 54.6213 303.585 54.28C304.908 53.9387 306.017 53.5333 306.913 53.064L308.641 59.592C307.489 60.1467 306.017 60.6373 304.225 61.064C302.476 61.4907 300.321 61.704 297.761 61.704C295.457 61.704 293.26 61.4053 291.169 60.808C289.121 60.168 287.308 59.208 285.729 57.928C284.193 56.648 282.956 55.0267 282.017 53.064C281.121 51.1013 280.673 48.7547 280.673 46.024C280.673 43.592 281.036 41.3733 281.761 39.368C282.529 37.32 283.596 35.5707 284.961 34.12C286.326 32.6693 287.948 31.56 289.825 30.792C291.745 29.9813 293.857 29.576 296.161 29.576C300.385 29.576 303.756 30.856 306.273 33.416C308.79 35.976 310.049 39.624 310.049 44.36V48.392ZM300.385 41.928C300.385 41.2027 300.3 40.4987 300.129 39.816C299.958 39.1333 299.681 38.536 299.297 38.024C298.956 37.4693 298.486 37.0427 297.889 36.744C297.334 36.4027 296.652 36.232 295.841 36.232C294.348 36.232 293.11 36.7653 292.129 37.832C291.148 38.856 290.572 40.264 290.401 42.056L300.385 41.928ZM316.092 61V15.24H325.436V61H316.092Z" fill="#353436"/>
<path d="M109 83C109 83 121 99 141 99C161 99 173 83 173 83" stroke="url(#paint0_linear)" stroke-width="6" stroke-linecap="round" stroke-linejoin="round"/>
<defs>
<linearGradient id="paint0_linear" x1="160.433" y1="85.0286" x2="155.901" y2="102.988" gradientUnits="userSpaceOnUse">
<stop stop-color="#F95E3F"/>
<stop offset="1" stop-color="#FF7457"/>
</linearGradient>
</defs>
</svg>
